<?xml version="1.0" standalone="no"?>
<!DOCTYPE svg PUBLIC "-//W3C//DTD SVG 20010904//EN"
 "http://www.w3.org/TR/2001/REC-SVG-20010904/DTD/svg10.dtd">
<svg version="1.0" xmlns="http://www.w3.org/2000/svg"
 width="7200.000000pt" height="4048.000000pt" viewBox="0 0 7200.000000 4048.000000"
 preserveAspectRatio="xMidYMid meet">

<g transform="translate(0.000000,4048.000000) scale(0.100000,-0.100000)"
fill="#000000" stroke="none">
<path d="M0 20240 l0 -20240 36000 0 36000 0 0 20240 0 20240 -36000 0 -36000
0 0 -20240z m68361 19703 c-12 -20 -14 -14 -5 12 4 9 9 14 11 11 3 -2 0 -13
-6 -23z m-41760 -46 c-13 -13 -15 1 -4 30 7 17 8 17 11 -1 2 -10 -1 -23 -7
-29z m31319 39 c0 -3 -4 -8 -10 -11 -5 -3 -10 -1 -10 4 0 6 5 11 10 11 6 0 10
-2 10 -4z m-27951 -211 c-13 -14 -32 -30 -42 -36 -18 -10 -18 -9 -1 15 16 26
41 45 58 46 4 0 -2 -11 -15 -25z m41761 21 c0 -2 -8 -10 -17 -17 -16 -13 -17
-12 -4 4 13 16 21 21 21 13z m-52209 -34 c-5 -9 -19 -26 -31 -37 l-21 -19 11
28 c15 41 19 46 36 46 11 0 12 -4 5 -18z m-251 -406 c0 -3 -4 -8 -10 -11 -5
-3 -10 -1 -10 4 0 6 5 11 10 11 6 0 10 -2 10 -4z m30900 -735 c0 -5 -7 -14
-15 -21 -12 -10 -15 -10 -15 2 0 8 3 18 7 21 9 10 23 9 23 -2z m-80 -153 c0
-19 -18 -43 -25 -36 -9 9 4 48 16 48 5 0 9 -6 9 -12z m9895 -199 c11 -4 -88
-8 -220 -9 -132 -1 -287 -3 -345 -4 -58 -2 -109 0 -115 3 -25 15 642 24 680
10z m-27389 -28 c-4 -5 -20 -20 -36 -31 -26 -18 -30 -19 -30 -5 0 24 49 70 62
57 6 -6 7 -15 4 -21z m26484 19 c0 -5 -10 -10 -22 -9 -22 0 -22 1 -3 9 11 5
21 9 23 9 1 1 2 -3 2 -9z m85 0 c3 -5 1 -10 -4 -10 -6 0 -11 5 -11 10 0 6 2
10 4 10 3 0 8 -4 11 -10z m90 0 c-11 -5 -33 -9 -50 -9 -26 0 -27 2 -10 9 11 5
34 9 50 9 26 0 27 -2 10 -9z m921 -3 c5 -5 -17 -7 -48 -6 -32 1 -55 5 -53 8 5
9 92 7 101 -2z m3747 6 c4 -3 -7 -15 -24 -25 -38 -23 -48 -17 -18 11 24 22 32
25 42 14z m-57457 -39 c-13 -12 -16 -12 -16 -2 0 19 24 42 28 28 2 -5 -4 -17
-12 -26z m1621 14 c22 -22 9 -36 -14 -15 -10 8 -49 20 -88 25 l-70 11 77 -2
c58 -2 82 -7 95 -19z m3633 12 c0 -5 -4 -10 -9 -10 -5 0 -23 -12 -40 -26 -40
-34 -40 -21 0 17 32 30 49 36 49 19z m10485 0 c21 -9 20 -10 -42 -15 -35 -3
-46 10 -15 18 26 7 35 6 57 -3z m5195 5 c0 -7 -72 -36 -78 -30 -11 11 23 35
49 35 16 0 29 -2 29 -5z m1557 -4 c7 -1 17 -10 23 -21 9 -16 8 -18 -5 -14 -8
4 -15 10 -15 15 0 5 -12 9 -27 9 -16 0 -34 4 -42 9 -9 6 -2 8 20 6 19 -2 39
-4 46 -4z m4130 3 c-3 -3 -12 -4 -19 -1 -8 3 -5 6 6 6 11 1 17 -2 13 -5z m136
-1 c-24 -2 -62 -2 -85 0 -24 2 -5 4 42 4 47 0 66 -2 43 -4z m4637 -4 c-14 -6
-42 -19 -62 -30 -44 -23 -50 -10 -12 20 17 13 41 21 63 20 34 0 35 -1 11 -10z
m15590 7 c0 -3 -11 -17 -25 -32 -28 -30 -31 -27 -13 11 9 21 38 36 38 21z
m5230 -4 c0 -14 -39 -46 -47 -39 -3 4 2 16 12 27 19 21 35 26 35 12z m-34906
-18 c5 -14 4 -15 -9 -4 -17 14 -19 20 -6 20 5 0 12 -7 15 -16z m24459 -4 c-6
-23 -31 -46 -40 -37 -7 8 24 57 36 57 5 0 7 -9 4 -20z m-23523 -1500 c-6 -11
-12 -20 -14 -20 -2 0 -2 9 1 20 3 11 9 20 15 20 5 0 4 -9 -2 -20z m39239
-1473 c-2 -2 -21 -16 -43 -31 -25 -19 -35 -23 -29 -12 11 20 65 58 72 51 2 -3
2 -6 0 -8z m2571 -1492 c-7 -9 -15 -13 -17 -11 -7 7 7 26 19 26 6 0 6 -6 -2
-15z m-62676 -3050 c-6 -16 -24 -21 -24 -7 0 11 11 22 21 22 5 0 6 -7 3 -15z
m20876 -4 c0 -5 -7 -12 -16 -15 -14 -5 -15 -4 -4 9 14 17 20 19 20 6z m-2557
-1501 c-18 -4 -41 -14 -50 -21 -15 -11 -15 -10 1 9 13 15 29 22 50 21 l31 -1
-32 -8z m10427 2 c0 -4 -13 -13 -30 -19 -32 -12 -41 -1 -12 16 21 12 42 14 42
3z m2616 -7546 c3 -7 -9 -37 -26 -67 -18 -29 -34 -68 -37 -86 -3 -18 -10 -33
-14 -33 -5 0 -9 -6 -9 -12 0 -7 -19 -45 -43 -85 -120 -205 -174 -294 -217
-358 -25 -38 -59 -98 -76 -132 -26 -58 -44 -78 -44 -53 0 6 -4 10 -10 10 -14
0 -12 -27 3 -33 6 -3 2 -6 -10 -6 -13 -1 -23 -6 -23 -12 0 -6 7 -9 15 -5 9 3
15 0 15 -10 0 -24 -27 -27 -48 -6 -20 20 -20 20 6 59 14 21 35 54 47 74 46 82
139 240 191 324 31 50 66 119 78 155 23 67 29 79 104 195 60 92 86 113 98 81z
m-549 -972 c-3 -3 -12 -4 -19 -1 -8 3 -5 6 6 6 11 1 17 -2 13 -5z m-49 -96
c-6 -18 -17 -37 -25 -41 -7 -4 -13 -17 -13 -27 0 -11 -4 -20 -10 -20 -15 0
-12 15 10 55 11 19 17 35 14 35 -4 0 -1 7 6 15 21 25 30 17 18 -17z m-4824
-1541 c27 -36 11 -55 -30 -35 -32 15 -43 46 -22 59 18 12 29 7 52 -24z m10361
-2857 c-20 -22 -44 -28 -26 -7 6 8 8 17 4 20 -3 4 4 7 17 7 22 0 23 -1 5 -20z"/>
</g>
</svg>
